<?xml version="1.0" encoding="UTF-8"?>
<svg width="137px" height="156px" viewBox="0 0 137 156" version="1.1" xmlns="http://www.w3.org/2000/svg" xmlns:xlink="http://www.w3.org/1999/xlink">
    <!-- Generator: Sketch 56.3 (81716) - https://sketch.com -->
    <title>Group 27</title>
    <desc>Created with Sketch.</desc>
    <g id="Website" stroke="none" stroke-width="1" fill="none" fill-rule="evenodd" opacity="0.852632068">
        <g id="Landing-Page-(Desktop)" transform="translate(-1387.000000, -7139.000000)">
            <g id="#10---Contact" transform="translate(-2.000000, 6815.000000)">
                <g id="Group-12">
                    <g id="Group-15" transform="translate(1389.000000, 324.000000)">
                        <g id="Bayswater-Secondary-College">
                            <g id="Group-27">
                                <path d="M85.6604036,136.555742 L85.6639562,136.555989 C85.6457615,136.560259 85.6276167,136.564538 85.609522,136.568824 C85.3902136,136.62512 85.1704804,136.680358 84.9503282,136.734534 C82.9215715,137.276109 81.6188283,137.937674 81.0420988,138.71923 L68.5,156 L55.758932,138.71923 L0,138.71923 L0,64.109589 C0,28.7028407 28.7517137,0 64.21875,0 L137,0 L137,70.3356687 C137,102.186934 115.186954,128.95215 85.6604036,136.555742 Z" id="Path" fill="#071C74"></path>
                                <g id="Brandmark-Rounded-NOEST" transform="translate(14.984375, 15.671233)" fill="#FFFFFF">
                                    <g id="Collingwood_College_Logo_Brandmark_Alt">
                                        <path d="M79.5923958,23.2078542 C80.8360131,23.2074183 82.0295824,23.6976629 82.9138542,24.5721042 L86.4916667,22.577 C84.2382175,19.6785701 80.415259,18.4947321 76.9181584,19.6124158 C73.4210578,20.7300994 70.9933012,23.9116842 70.8385351,27.5797868 C70.6837689,31.2478894 72.8348965,34.6226685 76.2254202,36.0309577 C79.6159439,37.4392469 83.5250358,36.5816429 86.014625,33.8833333 L82.3142083,31.8213542 C80.642382,32.9954506 78.4061774,32.9654705 76.7664278,31.7469769 C75.1266782,30.5284832 74.4528301,28.3960108 75.0946841,26.4565446 C75.736538,24.5170784 77.5494799,23.2075932 79.5923958,23.2078542 L79.5923958,23.2078542 Z" id="Path" fill-rule="nonzero"></path>
                                        <path d="M89.8354167,20.73125 L93.3552708,18.7695833 C89.3464678,12.7545527 81.8990895,10.0351182 74.9575545,12.0515972 C68.0160195,14.0680762 63.1847628,20.3543888 63.0226041,27.5810616 C62.8604455,34.8077345 67.4048654,41.304427 74.2489641,43.6302406 C81.0930629,45.9560542 88.6549262,43.5734107 92.9295,37.74425 L89.3895833,35.76475 C86.0254101,39.9877964 80.3360048,41.5837085 75.266263,39.7264257 C70.1965212,37.8691428 66.8845089,32.9755916 67.0445583,27.5787253 C67.2046077,22.181859 70.8007906,17.4931772 75.9716852,15.9395906 C81.1425797,14.386004 86.7274129,16.3162648 89.8354167,20.73125 L89.8354167,20.73125 Z" id="Path" fill-rule="nonzero"></path>
                                        <path d="M106.861792,0.0156041667 L106.861792,0 L53.3238958,0 C23.8710369,0.00984675017 0,23.8888686 0,53.3417292 L0,53.3417292 L0,106.841729 L0.0245208333,106.841729 L0.0245208333,106.841729 L53.8455208,106.841729 L53.8455208,106.841729 C82.3550171,106.672038 105.688205,84.1077519 106.81275,55.6199375 L106.81275,55.6199375 L106.81275,55.385875 C106.832813,54.7639375 106.848417,54.1397708 106.848417,53.5156042 L106.848417,53.5156042 L106.848417,0.0156041667 L106.861792,0.0156041667 Z M55.6912708,4.45833333 L102.407917,4.45833333 L102.407917,51.1638333 L55.6912708,51.1638333 L55.6912708,4.45833333 Z M55.6912708,84.1711042 L70.7738125,99.2536458 C69.2045255,99.8440452 67.6055296,100.352242 65.9833333,100.776167 L55.6823542,90.4751875 L55.6912708,84.1711042 Z M55.6912708,77.8647917 L55.6912708,71.55625 L79.2245833,95.0940208 C77.9078889,95.9098958 76.5570139,96.6603819 75.1719583,97.3454792 L55.6912708,77.8647917 Z M55.6912708,65.2543958 L55.6912708,58.9503125 L86.4047292,89.6637708 C85.2946042,90.6728403 84.1465833,91.6269236 82.9606667,92.5260208 L55.6912708,65.2543958 Z M58.6672083,55.6199375 L64.9712917,55.6199375 L92.434625,83.0855 C91.5340417,84.2639861 90.5762431,85.4075486 89.5612292,86.5161875 L58.6672083,55.6199375 Z M71.275375,55.6199375 L77.575,55.6199375 L97.276375,75.3213125 C96.5853333,76.7004236 95.8296458,78.0468403 95.0093125,79.3605625 L71.275375,55.6199375 Z M83.8857708,55.6199375 L90.1920833,55.6199375 L100.744958,66.1728125 C100.313739,67.7873514 99.8003625,69.3788192 99.2068333,70.941 L83.8857708,55.6199375 Z M96.4961667,55.6199375 L102.352187,55.6199375 C102.276183,57.4069308 102.102794,59.1884504 101.832792,60.9565625 L96.4961667,55.6199375 Z M30.4481875,51.1616042 L25.8226667,51.1616042 C29.8405926,42.3857393 38.6073108,36.7590131 48.2592292,36.7611875 C49.2531895,36.7346872 50.2477648,36.7801323 51.2351667,36.8971667 L51.2351667,40.9988333 C50.1807708,40.8962917 48.8343542,40.8717708 48.2592292,40.8717708 C40.9120629,40.8822869 34.1261378,44.8035154 30.4481875,51.1638333 L30.4481875,51.1616042 Z M10.0802917,30.5395833 C18.9894235,26.8559383 29.2279037,28.6972976 36.2952917,35.2542708 C34.9674458,35.8609145 33.6878949,36.5681328 32.4678125,37.36975 C25.7469381,31.9187208 16.3326389,31.2584278 8.91666667,35.7179375 C8.7673125,35.8093333 8.091875,36.2351042 7.30720833,36.8325208 C8.08116905,34.6717682 9.00786935,32.5688141 10.0802917,30.5395833 L10.0802917,30.5395833 Z M51.2351667,32.7174792 C50.3880833,32.6416875 48.8455,32.6528333 48.2592292,32.6528333 C45.6556927,32.6524687 43.0641136,33.0049114 40.5552292,33.7005417 C38.8436993,31.8694519 36.9005525,30.2695219 34.775,28.9412708 C37.6264564,24.5948771 42.375177,21.8638248 47.5659583,21.5850208 C47.8446042,21.5694167 50.0804583,21.440125 51.22625,21.600625 L51.2351667,32.7174792 Z M51.2351667,17.5591458 C50.2119792,17.4454583 47.8379167,17.4610625 47.5681875,17.4722083 C40.8561638,17.7575025 34.713136,21.3236422 31.137,27.0108125 C29.8594086,26.4444648 28.5421877,25.972113 27.1958333,25.5975208 C31.5195892,18.1916303 39.3697268,13.5525676 47.9426875,13.3371042 C48.1165625,13.3371042 49.7260208,13.268 51.2440833,13.3660833 L51.2351667,17.5591458 Z M18.7762708,18.7785 C27.409473,10.0995812 39.0034899,5.0036601 51.2351667,4.51183333 L51.2351667,9.28447917 C50.1986042,9.19085417 48.0251667,9.23320833 47.8401458,9.23766667 C37.3392544,9.50133855 27.8105037,15.4485904 22.9604167,24.7660417 C21.8199182,24.6267304 20.672017,24.5567546 19.5230417,24.5565 C17.4481606,24.5561565 15.3793363,24.7803787 13.3527083,25.22525 C14.9732185,22.925452 16.787702,20.7686553 18.7762708,18.7785 L18.7762708,18.7785 Z M5.05797917,45.6733958 C7.0151875,42.3831458 10.7691042,39.4049792 10.980875,39.2756875 C16.6104866,35.8592042 23.7349135,36.1284311 29.090625,39.9600417 C25.6554704,43.0213742 23.0070404,46.8640444 21.3687917,51.1638333 L4.50960417,51.1638333 C4.58973264,49.3248837 4.7728111,47.4918665 5.05797917,45.6733958 L5.05797917,45.6733958 Z M51.2351667,102.385625 L29.8708333,102.385625 L29.8708333,87.5795 C30.6509756,87.7426626 31.4456498,87.8263125 32.2426667,87.8291667 C33.8170037,87.8486238 35.3686415,87.4526409 36.741125,86.6811458 C39.9957083,84.8153333 41.8793542,80.9365833 42.3363333,75.1496667 L42.55925,72.41225 L39.7326667,72.1536667 C35.5663542,71.8282083 32.2649583,72.3921875 29.8641458,73.8210833 L29.8641458,73.2214375 L29.839625,73.2214375 C30.0625417,71.39575 30.0201875,68.3819167 28.0273125,65.9030833 C25.7624792,63.0876458 21.7856458,61.8905833 16.2127292,62.3185833 L13.4886875,62.56825 L13.7116042,65.2053542 C14.1574375,70.7782708 15.9652917,74.5165833 19.0995,76.3132917 C20.4209504,77.0591906 21.9156509,77.44363 23.433,77.427875 C24.0962994,77.425504 24.7580465,77.3635817 25.4102708,77.2428542 L25.4102708,83.59375 C23.1075417,82.2740833 19.9711042,81.7591458 16.0321667,82.0667708 L13.308125,82.3164375 L13.5310417,84.9535417 C13.976875,90.5264583 15.7847292,94.2647708 18.9189375,96.0614792 C20.2403087,96.8075749 21.7350629,97.1920281 23.2524375,97.1760625 C23.9787063,97.1717105 24.7028479,97.0970567 25.4147292,96.9531458 L25.4147292,102.385625 L4.45833333,102.385625 L4.45833333,55.6199375 L51.2351667,55.6199375 L51.2351667,102.385625 Z M31.2083333,78.8500833 C32.2694167,77.5460208 34.3670625,76.8638958 37.329625,76.8438333 C36.8392083,79.74175 35.8383125,81.6945 34.3938125,82.5348958 C33.0072708,83.3418542 31.3309375,83.0788125 30.3099792,82.7890208 C30.1896042,81.7301667 30.2096667,80.0694375 31.2083333,78.8500833 Z M25.2988125,72.5616042 C24.31575,72.8380208 22.6996042,73.0921458 21.3643333,72.3163958 C19.9733333,71.5049792 19.0081042,69.6257917 18.5355208,66.8326458 C21.3888542,66.8549375 23.4107083,67.5147708 24.4338958,68.7697917 C25.3902083,69.9445625 25.4125,71.542875 25.2965833,72.5616042 L25.2988125,72.5616042 Z M25.1115625,92.2875 C24.1285,92.5661458 22.5123542,92.8180417 21.1770833,92.0422917 C19.7838542,91.230875 18.8208542,89.3516875 18.3482708,86.5585417 C21.2016042,86.5830625 23.2234583,87.2406667 24.2466458,88.4956875 C25.2051875,89.679375 25.22525,91.2776875 25.1115625,92.2875 Z M35.4147708,51.1571458 C38.5378585,47.256404 43.262287,44.983562 48.2592292,44.9778958 C49.2528213,44.9726626 50.2460499,45.0173021 51.2351667,45.1116458 L51.2351667,51.1571458 L35.4147708,51.1571458 Z M55.7001875,96.7748125 L60.762625,101.83725 C59.0815576,102.08468 57.3888656,102.245393 55.6912708,102.31875 L55.7001875,96.7748125 Z" id="Shape" fill-rule="nonzero"></path>
                                    </g>
                                </g>
                            </g>
                        </g>
                    </g>
                </g>
            </g>
        </g>
    </g>
</svg>